<svg width="145" height="145" viewBox="0 0 145 145" fill="none" xmlns="http://www.w3.org/2000/svg">
<path fill-rule="evenodd" clip-rule="evenodd" d="M26.0649 96.9271C28.0134 105.423 29.9731 113.908 32.2388 122.325C33.3829 126.516 34.6063 130.685 35.9204 134.831C36.0797 135.334 36.2583 136.081 36.4643 136.941C37.093 139.569 37.9762 143.26 39.3415 144.335C40.4752 145.227 42.1592 144.656 43.6638 144.145C44.3391 143.916 44.9783 143.7 45.5153 143.633C46.2072 143.546 46.9027 143.453 47.5994 143.361C49.0699 143.167 50.5459 142.971 52.0063 142.817C69.2251 140.948 86.4212 141.401 103.572 143.633C104.103 143.702 104.735 143.917 105.403 144.143C106.912 144.656 108.607 145.231 109.746 144.335C111.111 143.26 111.994 139.569 112.623 136.941C112.829 136.081 113.008 135.334 113.167 134.831C114.492 130.696 115.716 126.528 116.849 122.325C119.125 113.908 121.085 105.423 123.022 96.9271C123.669 94.0926 124.466 91.2476 125.264 88.3961C126.496 83.9999 127.732 79.5885 128.426 75.1771C128.497 74.755 128.618 74.3209 128.741 73.8843C129.108 72.575 129.482 71.2433 128.505 70.1474C127.921 69.4906 127.166 69.0422 126.348 68.7407C128.109 65.3812 129.769 61.942 131.27 58.4304C131.305 58.3603 131.345 58.2762 131.389 58.1834L131.39 58.1823C131.445 58.0657 131.507 57.9344 131.576 57.7961L131.582 57.7844C132.741 55.4102 135.444 49.8701 131.825 45.2332C131.189 44.4175 130.437 43.7046 129.652 43.0892C129.902 42.3586 130.151 41.6271 130.398 40.8945C130.919 39.3992 131.474 37.8926 132.041 36.3746L132.113 36.1812C133.971 31.2005 135.889 26.0597 136.515 20.3227L136.549 20.1527C137.331 14.9758 134.182 12.5062 132.244 11.4867C130.319 10.5125 127.453 9.3457 124.53 9.3457H124.088C118.198 9.61758 115.728 15.259 114.686 17.6719C114.573 17.9324 114.471 18.159 114.38 18.3516C111.38 24.3944 108.862 30.6896 106.656 36.9548C106.389 36.8917 106.141 36.8385 105.918 36.7938C105.809 36.7711 105.699 36.7507 105.59 36.7324C107.354 28.615 108.753 21.0474 109.135 13.2085L109.146 12.9933L109.148 12.9594C109.217 11.355 109.375 7.68401 106.405 5.00698C105.091 3.81753 102.837 2.46948 99.3476 2.46948C97.3652 2.46948 95.632 2.89995 94.5445 3.26245C89.4129 4.92769 87.9516 10.3085 87.1699 13.2085C87.068 13.605 86.966 13.9789 86.8641 14.296C85.9352 17.1507 85.2555 19.7109 84.7457 22.3277C84.6754 22.7058 84.5504 23.1453 84.4185 23.6092C84.3805 23.743 84.3419 23.8787 84.3039 24.0156C84.0434 24.8878 83.7602 25.8847 83.5563 26.9949C83.412 27.7738 83.3412 28.4711 83.2815 29.0591C83.2709 29.1637 83.2607 29.2649 83.2504 29.3624L83.2468 29.4032C83.227 29.6259 83.2092 29.8263 83.1894 30.0025L83.1145 30.0195C82.3361 30.2019 81.6306 30.4715 80.9903 30.8074C80.9822 30.2397 80.9738 29.6717 80.9654 29.103L80.9651 29.0839L80.9638 28.9979L80.9637 28.9902L80.9622 28.8868C80.9395 27.2895 80.9508 25.6583 80.9735 24.027C81.0415 18.6688 81.0981 13.118 79.7387 7.45396L79.6934 7.26138C78.6626 2.14106 74.8676 0.883644 72.6926 0.600441C71.7297 0.48716 70.7215 0.419189 69.7813 0.419189C67.6969 0.419189 65.8618 0.736375 64.3098 1.37075C58.8836 3.61372 58.4758 9.74224 58.3059 12.3704C58.2946 12.6422 58.2832 12.9028 58.2493 13.118C57.592 18.7907 57.3247 24.5115 57.2894 30.1579C57.1944 30.2018 57.1011 30.2461 57.0094 30.2907C56.8956 29.4534 56.7802 28.6158 56.6633 27.7766C56.4367 26.168 56.2555 24.5481 56.0856 22.9168L56.0765 22.8347C55.4903 17.5361 54.8856 12.0705 52.857 6.66099L52.8004 6.49107C51.1578 1.51802 47.227 0.736378 45.0406 0.713722H44.7348V0.702393C42.5371 0.702393 39.3766 1.00826 36.7711 2.48091C31.6621 5.34693 32.002 11.4754 32.1492 14.0922C32.1536 14.2016 32.1597 14.3076 32.1655 14.4089C32.1747 14.5699 32.1832 14.7191 32.1832 14.8512C32.225 21.5961 32.8186 28.3555 33.6784 34.9526L33.636 34.98C32.8485 33.5502 31.9718 32.0912 30.9257 30.4839C30.7445 30.2007 30.5519 29.8609 30.348 29.4984L30.3294 29.4664C28.8184 26.8761 26.0325 22.0999 20.6624 21.8066C20.3792 21.7953 20.0847 21.7839 19.7789 21.7839C15.3382 21.7839 11.6566 23.5058 9.67417 26.4964C7.45677 29.8619 8.56102 33.384 9.04193 34.9179L9.05112 34.9472L9.10776 35.1171C11.8718 43.7945 15.8593 51.7355 20.4019 60.4695C21.7432 63.0512 23.0662 65.6971 24.365 68.3314C22.9692 68.5612 21.5676 69.0783 20.6161 70.1474C19.6561 71.2337 20.017 72.5517 20.3724 73.8499C20.4951 74.2981 20.6172 74.744 20.6841 75.1771C21.3744 79.6091 22.6116 84.041 23.8446 88.4576C24.6348 91.2883 25.4234 94.1131 26.0649 96.9271ZM19.7789 28.6035C18.2156 28.6035 16.1878 29 15.3496 30.2574C14.9246 30.9104 15.2489 31.9523 15.524 32.8363C15.5496 32.9184 15.5747 32.9991 15.5988 33.0781C18.2722 41.4835 22.3617 49.4585 26.4511 57.3203C28.2103 60.7147 29.9051 64.1465 31.5893 67.584C32.0628 67.5405 32.5371 67.497 33.012 67.4551C32.7983 66.023 32.5885 64.5928 32.3826 63.1781C32.1448 61.6148 31.8616 60.0402 31.5784 58.4656C30.6861 53.4241 29.7735 48.2193 30.0505 42.6965C29.6597 42.0429 29.2696 41.3881 28.932 40.7019C27.7992 38.391 26.5984 36.3406 25.205 34.1769C24.9745 33.818 24.7297 33.396 24.4696 32.9476C23.3752 31.0609 22.0094 28.7063 20.2886 28.6148C20.13 28.6035 19.9601 28.6035 19.7789 28.6035ZM42.8158 39.9441C42.442 39.8535 42.0229 39.8195 41.5811 39.8195C41.4784 39.8195 41.3748 39.8216 41.2704 39.8255C40.119 39.8687 38.8786 40.1404 37.9334 40.4312C37.3488 40.6107 37.1102 40.8316 37.0061 41.1422C36.9375 41.3471 36.9273 41.591 36.9149 41.8877C36.9093 42.0217 36.9033 42.1663 36.8912 42.323C36.5165 47.3134 37.403 52.323 38.2801 57.2796C38.4023 57.9697 38.5242 58.6588 38.6425 59.3466C38.8048 60.2902 38.9604 61.2314 39.1002 62.1699C39.3343 63.7948 39.5758 65.4191 39.8198 67.0433C41.0956 66.9681 42.3883 66.9407 43.5782 67.3947C45.4006 68.0942 46.019 70.2819 46.5514 72.1653C46.6743 72.6 46.7926 73.0184 46.92 73.3986C47.72 75.8258 49.4236 77.568 51.503 78.792C51.0592 74.7681 50.5724 70.733 49.9872 66.7143C48.9555 59.6303 47.618 52.5974 45.6705 45.7668C45.5938 45.4865 45.5163 45.1471 45.4313 44.7744C45.0145 42.9474 44.4153 40.3205 42.8158 39.9441ZM41.5811 33C42.5666 33 43.5069 33.102 44.3791 33.3285C47.8096 34.1301 49.684 36.614 50.762 39.0264C50.8317 38.4702 50.9305 37.9021 51.0691 37.3335C51.0021 36.8341 50.9353 36.3347 50.8685 35.8352L50.8676 35.8281L50.8666 35.8209L50.7478 34.9327C50.4704 32.8605 50.1915 30.7882 49.9004 28.7168C49.6712 27.0638 49.4877 25.3876 49.3034 23.7048C48.7591 18.7338 48.2085 13.706 46.4566 9.05122C46.4011 8.9019 46.3548 8.7627 46.3121 8.63397C46.0758 7.92283 45.9458 7.53152 44.9387 7.52192H44.7348C43.2961 7.52192 41.3477 7.72583 40.1356 8.42817C38.7199 9.2198 38.8663 11.872 38.9694 13.741C38.9918 14.1453 39.0121 14.513 39.0141 14.8172C39.0491 20.8916 39.554 26.9837 40.3186 33.0535C40.7316 33.0195 41.1544 33 41.5811 33ZM63.7887 35.9555C63.4262 35.7856 63.0297 35.7176 62.5992 35.7176C61.2625 35.7176 59.7445 36.454 58.725 37.145C58.4385 37.3433 58.2124 37.6114 58.0345 37.9308C57.6784 38.57 57.5151 39.4151 57.4459 40.3192C57.3786 41.1995 57.4005 42.1358 57.4205 42.9929C57.433 43.5287 57.4448 44.0335 57.4336 44.4743C57.3769 47.0457 57.4336 49.4247 57.6715 51.9848C57.742 52.7393 57.7528 53.4965 57.7635 54.2537C57.7752 55.0767 57.7869 55.8999 57.8754 56.72C57.9207 57.1419 57.9897 57.5403 58.0654 57.9302C58.0976 58.0959 58.131 58.26 58.1643 58.4238C58.3073 59.1268 58.449 59.8233 58.4871 60.6055C58.7369 65.8159 58.9964 71.0755 59.389 76.3312C59.5136 77.9984 59.6515 79.6652 59.8067 81.3299C63.1123 81.7752 66.5496 81.7982 70.0003 81.6975C69.9278 80.9257 69.8545 80.1539 69.7808 79.3821C69.7241 78.7881 69.6672 78.1941 69.6104 77.6C69.2042 73.3532 68.8007 69.104 68.4898 64.8422C68.375 63.1814 68.257 61.5179 68.127 59.8544C67.5645 52.6564 66.7781 45.4608 65.0574 38.5043C65.0377 38.428 65.0179 38.35 64.9979 38.2711C64.8138 37.5453 64.6078 36.733 64.1779 36.2553C64.0649 36.1297 63.9364 36.0272 63.7887 35.9555ZM71.5937 36.6918L71.6391 36.8844C72.2146 39.2163 72.6904 41.5465 73.0917 43.893C73.4576 42.8969 73.8609 41.8699 74.3148 40.7783C74.2881 38.9769 74.2678 37.1751 74.2474 35.3731L74.2474 35.3709C74.2235 33.2513 74.1996 31.1313 74.1653 29.0114C74.1365 27.3346 74.1568 25.6402 74.1771 23.939C74.2368 18.9514 74.2972 13.9056 73.1231 9.07388C73.0855 8.91459 73.0567 8.76718 73.0301 8.63124C72.8885 7.90677 72.8106 7.50819 71.809 7.37466C71.1973 7.29536 70.5063 7.23872 69.7813 7.23872C68.7618 7.23872 67.7083 7.352 66.9153 7.68052C65.4138 8.29603 65.2406 10.9538 65.1188 12.8222C65.0926 13.2233 65.0689 13.588 65.0348 13.8883C64.458 18.8932 64.1973 23.9512 64.1382 29.0246C65.0272 29.1629 65.8875 29.43 66.734 29.8497C70.325 31.5829 71.2199 35.1625 71.5937 36.6918ZM83.5789 66.0089C86.241 57.5582 88.8805 48.9828 90.0473 40.2488C90.0573 40.1622 90.0682 40.0736 90.0792 39.9836C90.1925 39.06 90.3244 37.9844 89.798 37.4167C89.4832 37.0867 89.0727 36.8522 88.6105 36.6939C88.0417 36.4992 87.3945 36.4199 86.7508 36.4199C86.0031 36.4199 85.2668 36.5218 84.6551 36.6578C82.9771 37.0499 82.0479 39.5931 81.3002 41.6396C81.2428 41.7968 81.1865 41.951 81.1309 42.1011C81.0113 42.4244 80.8955 42.7285 80.7809 43.0015C80.1993 44.3761 79.6756 45.7083 79.1984 47.0723C78.8577 48.0464 78.5407 49.0367 78.2434 50.0703C78.0335 50.8104 77.759 51.5289 77.4842 52.2482C77.1954 53.0043 76.9062 53.7612 76.6914 54.5449C76.524 55.1434 76.4225 55.7102 76.3217 56.2726C76.1975 56.9662 76.0744 57.6532 75.8305 58.3851C75.5555 59.1932 75.2802 60.0027 75.0052 60.8136C75.0941 61.9848 75.1795 63.1685 75.2641 64.3664C75.3769 65.97 75.5054 67.5864 75.6437 69.2039C75.8941 72.1345 76.1761 75.069 76.4535 77.9375C76.5683 79.1021 76.6805 80.2639 76.79 81.4231C77.5457 81.3934 78.2983 81.3672 79.0464 81.3478L79.4746 79.8588C79.9848 78.0846 80.4947 76.3113 81.0107 74.5404C81.4761 72.9434 81.9465 71.3484 82.4266 69.7563C82.8039 68.5052 83.1873 67.2559 83.5789 66.0089ZM96.8328 40.8832L96.7988 41.1324L96.7703 41.3415L96.751 41.4811C96.8486 41.323 96.9476 41.1653 97.0481 41.0079L97.1387 40.8379C97.4013 40.3912 97.6774 39.9896 97.9635 39.6289C98.0056 39.439 98.0478 39.2491 98.0902 39.0593C100.016 30.416 101.908 21.648 102.327 12.846L102.335 12.6695C102.382 11.7162 102.437 10.5811 101.84 10.048C101.205 9.49292 100.288 9.28901 99.3476 9.28901C98.4074 9.28901 97.4219 9.48159 96.6629 9.73081C95.0177 10.2701 94.309 12.889 93.7397 14.9932C93.6034 15.497 93.475 15.9712 93.3438 16.3804C92.5508 18.8273 91.9164 21.1269 91.418 23.6531C91.2681 24.4135 91.0557 25.1603 90.8434 25.9068C90.6223 26.6839 90.4014 27.4607 90.2512 28.2523C90.1416 28.8501 90.0911 29.4129 90.041 29.9715L90.0383 30.002C92.302 30.5942 93.8191 31.7419 94.7824 32.7609C97.4812 35.6621 97.0322 39.2778 96.8371 40.8487L96.8328 40.8832ZM109.135 45.3465C108.025 44.3836 106.02 43.7606 104.604 43.4774C104.556 43.4689 104.51 43.4611 104.465 43.4542C104.335 43.4337 104.221 43.421 104.12 43.4208L104.117 43.4208C103.527 43.4208 103.337 43.748 103.052 44.2393C102.981 44.3612 102.904 44.4932 102.814 44.6329C100.136 48.8324 98.5599 53.6245 97.0013 58.3649C96.4704 59.9797 95.9414 61.5884 95.3715 63.1657C94.6097 65.2735 93.8594 67.3848 93.1093 69.4958C91.7095 73.4351 90.3099 77.3736 88.8357 81.2871C89.785 81.2271 90.7369 81.1316 91.6731 80.9863C96.3273 80.2642 100.593 78.3141 102.213 73.3986C102.348 72.9903 102.477 72.5683 102.607 72.1432C102.913 71.1412 103.226 70.1183 103.64 69.1959C103.8 68.8458 103.998 68.5533 104.228 68.309C105.996 63.1142 107.554 57.8602 108.75 52.544C108.803 52.3049 108.856 52.0656 108.909 51.8262C108.918 51.7838 108.928 51.7403 108.939 51.6957C109.001 51.4334 109.083 51.1331 109.171 50.808C109.662 48.9994 110.361 46.4229 109.135 45.3465ZM129.073 17.5473C127.827 16.9016 125.98 16.1652 124.53 16.1652H124.349C122.736 16.2398 121.668 18.6773 120.917 20.3905C120.756 20.759 120.609 21.0941 120.475 21.3648C117.545 27.2561 115.095 33.4114 112.91 39.6687C113.154 39.8481 113.392 40.0375 113.621 40.2375C114.482 40.9946 115.114 41.8298 115.568 42.7029C116.237 41.93 118.211 39.7504 121.675 39.7504C122.286 39.7504 122.897 39.8197 123.513 39.9605C123.656 39.5432 123.799 39.1258 123.941 38.7082C124.481 37.1351 125.071 35.562 125.663 33.9828C127.421 29.2958 129.199 24.5545 129.741 19.5977C129.758 19.4404 129.779 19.2962 129.799 19.163C129.906 18.4229 129.965 18.0176 129.073 17.5473ZM122.378 46.7285C122.083 46.6152 121.868 46.5586 121.675 46.5586C121.472 46.5586 121.313 46.6187 121.166 46.7235C121.005 46.8374 120.858 47.0042 120.681 47.204C120.586 47.3125 120.481 47.4306 120.361 47.5554C118.44 49.5957 116.822 51.8868 115.34 54.28C114.189 56.1397 113.12 58.0611 112.056 59.9745C111.235 61.4501 110.417 62.921 109.566 64.355C109.022 65.2692 108.48 66.1847 107.94 67.1008C108.364 67.093 108.786 67.1022 109.191 67.1109C109.469 67.117 109.739 67.1228 109.995 67.1228C110.158 67.1228 110.321 67.1256 110.485 67.1284L110.486 67.1284C110.653 67.1313 110.821 67.1342 110.992 67.1342C113.227 67.1881 115.493 67.3965 117.731 67.6023L118.061 67.6326C118.427 67.6676 118.793 67.7029 119.16 67.7387C121.291 63.8162 123.27 59.8239 125.017 55.7457C125.135 55.4779 125.289 55.1635 125.459 54.8185C125.604 54.5236 125.76 54.2063 125.913 53.8766C126.301 53.0425 126.671 52.1287 126.803 51.2956C126.916 50.5778 126.851 49.9199 126.467 49.4246C125.561 48.2578 123.726 47.2722 122.378 46.7285Z" fill="#232323"/>
</svg>
