<svg width="160" height="160" viewBox="0 0 160 160" fill="none" xmlns="http://www.w3.org/2000/svg">
<path d="M5 83.0005C5 116 38.5 155 80 155C121.5 155 155 116 155 83.0005H5Z" fill="white"/>
<path d="M155 82.9995C155 104.25 121.5 121.5 80 121.5C38.5 121.5 5 104.25 5 82.9995C5 61.7495 38.5 44.4995 80 44.4995C121.5 44.4995 155 61.7495 155 82.9995Z" fill="#E8E8E8"/>
<path d="M80.0001 116.5C42.0001 116.5 9.75006 101 9.75006 82.7502C9.75006 64.5002 42.0001 49.0002 80.0001 49.0002C118 49.0002 150.25 64.5002 150.25 82.7502C150.25 101.25 118 116.5 80.0001 116.5Z" fill="white"/>
<path d="M31 43.5C31.25 47.75 33.25 59.5 31.5 66C42.5 68 34.25 49.25 31 43.5Z" fill="#E8E8E8"/>
<path d="M138.25 68.9913C143.25 57.4913 135.5 45.4913 130.5 52.4913C125.5 59.4913 129.25 63.9913 116.5 61.4913C113.75 56.7413 120.5 42.2413 116.5 39.4913C110 35.2413 110 51.2413 102.5 41.9913C95 32.9913 94.75 54.2413 83.5 54.2413C78 54.2413 85.75 37.7413 73.25 34.4913C60.75 31.2413 64.25 45.4913 49.25 37.2413C34.25 28.9913 26.5 41.4913 33.5 46.7413C40.25 51.9913 34.75 62.4913 33.75 66.4913C25.25 62.4913 25.75 79.7413 26 82.4913C20 84.4913 10.25 90.25 10 90.5C16.25 105.5 47.5 117.75 81.5 117.75C119.5 117.75 151.75 100.741 151.75 82.4913C151.75 63.9913 130 87.7413 138.25 68.9913Z" fill="#E8E8E8"/>
<path d="M106 58.25C108.5 63.25 108.25 68.5 105.25 70C102.25 71.5 98.0001 69 95.2501 64C92.7501 59 93.0001 53.75 96.0001 52.25C99.0001 50.75 103.5 53.25 106 58.25Z" fill="#E8E8E8"/>
<path d="M137.25 75.2496C136.75 72.4996 142.75 66.2496 141.5 57.4996C140.25 49.4996 131 44.7496 128.25 53.9996C125.75 62.4996 117.75 60.4996 117.75 60.4996C123 39.9996 120.25 29.9996 108.75 42.2496C102.75 48.4996 108.25 20.9996 89.25 50.2496C79.5 65.2496 83.5 15.9996 66 33.9996C52 48.2496 41.25 20.4996 32 37.2496C27.25 45.9996 37.5 47.2496 34.75 64.2496C34.75 64.2496 24.25 57.7496 25.25 79.2496C25.5 82.9996 6.75004 83.7496 11 89.9996C15.25 88.2496 42 75.4996 40.5 87.2496C40 90.7496 37.75 102 44 101.5C50.75 101 57 90.4996 57.25 102.5C57.5 111.75 62 112.25 68.5 106.5C70.25 105 71.5 102.5 74 101.5C78.5 99.7496 82.75 102.25 87 103.75C95 106.75 92.75 95.4996 87.25 93.4996C86.25 93.2496 80 92.2496 80.5 91.2496C81.5 88.2496 85 86.2496 87.5 84.9996C89.75 83.9996 92.25 83.2496 94.75 83.2496C98.25 83.4996 97 85.7496 96.25 88.4996C95.5 91.7496 96 95.9996 99.5 96.9996C103.5 98.2496 106.75 94.4996 109.5 92.2496C111.5 90.4996 124.75 81.9996 120.25 90.9996C117.5 96.2496 104.25 97.9996 110.25 105.75C114.25 110.75 119.75 108.5 122.75 103.75C125.25 99.9996 126.25 95.4996 127.25 90.9996C128 87.4996 128.25 85.4996 131.75 87.2496C136.5 89.7496 142.5 95.2496 142.75 86.2496C143 80.2496 145.25 69.2496 150.5 79.7496C147.25 65.9996 137.75 78.9996 137.25 75.2496ZM104.75 92.2496C104.5 92.4996 98.25 96.9996 97.25 92.7496C96.5 89.4996 99.75 85.7496 97.75 82.9996C94.25 78.2496 85 82.7496 81.5 85.2496C79.5 86.7496 74.5 91.4996 78.25 93.7496C81 95.4996 85.25 94.4996 87.75 96.9996C89.75 98.9996 90.25 102.75 86.75 101.25C82.25 99.4996 77.75 97.2496 72.75 99.2496C70 100.25 63.25 110.25 60 108.25C58.25 107.25 59 100.25 58.75 98.2496C58 92.4996 54 93.4996 50.25 95.7496C48.75 96.7496 44.25 99.9996 42.5 98.7496C40.75 97.4996 41.75 91.9996 42 90.2496C43.25 79.4996 36.25 78.4996 27.25 80.9996C27.25 77.7496 27 64.7496 33 66.9996C36.5 68.2496 45.5 79.2496 48.75 72.9996C52.25 66.2496 67.75 36.4996 67.75 58.7496C67.75 64.7496 62.5 77.4996 66.75 80.4996C70.5 82.9996 80 72.4996 82.5 70.9996C88.75 66.7496 95.75 62.7496 99 72.2496C101.25 78.4996 101.75 86.7496 109.5 88.4996C107.5 89.7496 106 90.9996 104.75 92.2496ZM116.75 81.7496C116 86.2496 110.75 87.2496 107.25 85.2496C100 80.9996 104 66.2496 95 63.9996C84.25 61.2496 70.25 79.9996 68.25 77.9996C65.75 75.2496 71 63.7496 70.25 56.2496C68 36.9996 53 55.7496 47 71.2496C45.75 74.2496 36.5 66.2496 36.5 66.2496C41.25 45.7496 30 45.9996 33.5 39.4996C40.75 24.9996 51.5 52.9996 66.25 37.7496C82.25 21.4996 76.25 74.2496 91.25 51.9996C105 31.7496 102.75 48.4996 105.75 47.4996C111 45.7496 120 28.4996 115.25 60.2496C85.5 54.7496 118.25 72.9996 116.75 81.7496ZM138.75 89.4996C135 88.7496 131 82.2496 126.5 84.4996C122.75 86.2496 122.5 96.2496 121 99.7496C119.25 104 113.5 109.25 110 103C109.25 101.5 120 94.7496 121.25 91.7496C123.75 85.9996 118.5 85.4996 119 81.7496C120.75 70.2496 93.25 58.7496 118 62.9996C132 65.4996 128.75 48.2496 135.25 51.9996C147.75 59.4996 126 78.2496 140 78.4996C139 82.2496 139.5 85.9996 138.75 89.4996Z" fill="white"/>
</svg>
